<?xml version="1.0" standalone="no"?>
<!DOCTYPE svg PUBLIC "-//W3C//DTD SVG 20010904//EN"
 "http://www.w3.org/TR/2001/REC-SVG-20010904/DTD/svg10.dtd">
<svg version="1.0" xmlns="http://www.w3.org/2000/svg"
 width="191.000000pt" height="223.000000pt" viewBox="0 0 191.000000 223.000000"
 preserveAspectRatio="xMidYMid meet">

<g transform="translate(0.000000,223.000000) scale(0.100000,-0.100000)"
fill="#000000" stroke="none">
<path d="M1045 2090 l-69 -140 -47 0 c-138 0 -335 -60 -469 -142 -158 -97
-279 -233 -361 -403 -133 -278 -130 -581 8 -860 19 -39 43 -81 53 -95 l18 -24
39 79 40 79 -32 70 c-51 111 -70 204 -69 336 1 138 19 219 78 345 80 168 212
301 381 381 91 43 222 78 268 72 24 -3 11 -32 -408 -888 -238 -487 -433 -886
-432 -886 1 -1 81 -4 177 -8 l175 -7 144 326 144 325 218 0 219 0 0 -61 c0
-33 4 -59 9 -57 21 8 310 234 308 241 -1 4 -70 71 -152 148 l-150 140 -3 -61
-3 -60 -164 0 -163 0 90 213 c49 116 122 289 161 384 l72 171 5 -282 5 -283
130 -124 130 -123 3 377 c1 211 6 377 11 377 5 0 43 -32 85 -71 172 -161 256
-355 256 -594 0 -323 -175 -601 -463 -736 -198 -92 -451 -95 -646 -8 -35 16
-65 28 -67 26 -1 -1 -16 -31 -33 -67 -37 -77 -39 -74 86 -120 352 -127 732
-43 994 219 330 330 379 845 119 1232 -57 85 -179 205 -262 259 l-68 44 0 198
0 198 -148 0 -148 0 -69 -140z"/>
<path d="M1260 551 l-135 -116 134 -3 c74 -1 136 -1 138 1 2 3 2 56 1 120 l-3
115 -135 -117z"/>
</g>
</svg>
